<svg xmlns="http://www.w3.org/2000/svg" viewBox="0 0 160 160" role="img" aria-label="江湖地图">
  <defs>
    <linearGradient id="paper" x1="0" y1="0" x2="1" y2="1">
      <stop offset="0" stop-color="#f4e6c8"/>
      <stop offset="0.5" stop-color="#d8c08c"/>
      <stop offset="1" stop-color="#b58f5b"/>
    </linearGradient>
    <linearGradient id="water" x1="0" y1="0" x2="1" y2="1">
      <stop offset="0" stop-color="#5bb6a8"/>
      <stop offset="1" stop-color="#2f6f83"/>
    </linearGradient>
  </defs>
  <rect x="14" y="18" width="132" height="124" rx="8" fill="url(#paper)" stroke="#4f372b" stroke-width="6"/>
  <path d="M28 52c16-12 32-11 48 1 12 9 25 10 39 3 8-4 14-3 19 2" fill="none" stroke="#5d4335" stroke-width="5" stroke-linecap="round"/>
  <path d="M31 107c18-14 38-17 60-8 17 7 31 5 43-6" fill="none" stroke="#5d4335" stroke-width="5" stroke-linecap="round"/>
  <path d="M55 72c12 6 17 16 16 31-1 11 4 19 15 24" fill="none" stroke="url(#water)" stroke-width="9" stroke-linecap="round"/>
  <circle cx="51" cy="52" r="8" fill="#9f3e35" stroke="#4f372b" stroke-width="4"/>
  <circle cx="106" cy="92" r="8" fill="#2f6f83" stroke="#4f372b" stroke-width="4"/>
  <circle cx="92" cy="39" r="6" fill="#cf9d2d" stroke="#4f372b" stroke-width="4"/>
  <path d="M70 118l18-42 18 42-18-11z" fill="#293a4a" stroke="#4f372b" stroke-width="4" stroke-linejoin="round"/>
</svg>
